<?xml version="1.0" standalone="no"?>
<!DOCTYPE svg PUBLIC "-//W3C//DTD SVG 20010904//EN"
 "http://www.w3.org/TR/2001/REC-SVG-20010904/DTD/svg10.dtd">
<svg version="1.0" xmlns="http://www.w3.org/2000/svg"
 width="600.000000pt" height="600.000000pt" viewBox="0 0 600.000000 600.000000"
 preserveAspectRatio="xMidYMid meet">

<g transform="translate(0.000000,600.000000) scale(0.100000,-0.100000)"
fill="#000000" stroke="none">
<path d="M4630 4760 l0 -120 -750 0 -750 0 0 -130 0 -130 750 0 750 0 0 -120
c0 -100 3 -120 15 -120 8 0 15 6 15 14 0 18 114 116 200 171 86 56 194 110
308 155 l94 37 -79 28 c-192 69 -396 188 -486 284 -26 28 -52 51 -57 51 -6 0
-10 -50 -10 -120z"/>
<path d="M1947 4138 c-256 -651 -699 -1752 -724 -1803 -78 -157 -172 -246
-285 -270 l-28 -5 0 -90 0 -90 370 0 370 0 0 88 0 89 -77 11 c-161 22 -187 97
-108 310 l39 102 344 -2 345 -3 48 -120 c66 -162 73 -191 59 -226 -15 -36 -58
-55 -142 -64 l-68 -7 0 -89 0 -89 555 0 555 0 0 89 0 90 -54 11 c-111 23 -176
86 -251 245 -31 63 -666 1623 -742 1823 -4 8 -34 12 -103 12 -69 0 -99 -4
-103 -12z m28 -1125 c70 -170 130 -316 133 -325 4 -17 -13 -18 -263 -18 -161
0 -265 4 -263 9 33 94 255 641 259 641 4 0 64 -138 134 -307z"/>
<path d="M3620 4095 c-195 -30 -359 -54 -363 -54 -4 -1 -6 -40 -5 -88 l3 -88
60 -6 c75 -7 119 -30 142 -72 17 -30 18 -96 21 -989 l3 -958 67 0 67 0 145
120 c122 100 148 117 161 107 9 -7 43 -33 75 -60 33 -26 95 -65 139 -86 215
-106 441 -107 654 -4 176 85 309 251 358 448 12 48 17 110 17 200 0 154 -21
242 -87 369 -179 344 -659 453 -999 227 -33 -23 -62 -41 -64 -41 -2 0 -4 232
-4 515 0 484 -1 515 -17 514 -10 -1 -178 -25 -373 -54z m815 -1078 c114 -63
175 -263 162 -527 -13 -242 -86 -378 -219 -410 -107 -26 -206 8 -305 105 l-63
61 0 321 0 320 49 46 c116 109 269 143 376 84z"/>
<path d="M1300 1798 c-83 -93 -267 -201 -473 -279 l-88 -33 94 -36 c177 -69
316 -149 440 -254 37 -31 67 -64 67 -72 0 -8 7 -14 15 -14 13 0 15 20 15 120
l0 120 750 0 750 0 0 130 0 130 -750 0 -750 0 0 120 c0 90 -3 120 -12 119 -7
-1 -33 -23 -58 -51z"/>
</g>
</svg>
