<?xml version="1.0" standalone="no"?>
<!DOCTYPE svg PUBLIC "-//W3C//DTD SVG 20010904//EN"
 "http://www.w3.org/TR/2001/REC-SVG-20010904/DTD/svg10.dtd">
<svg version="1.0" xmlns="http://www.w3.org/2000/svg"
 width="600.000000pt" height="600.000000pt" viewBox="0 0 600.000000 600.000000"
 preserveAspectRatio="xMidYMid meet">

<g transform="translate(0.000000,600.000000) scale(0.100000,-0.100000)"
fill="#000000" stroke="none">
<path d="M4630 4760 l0 -120 -750 0 -750 0 0 -130 0 -130 750 0 750 0 0 -120
c0 -100 3 -120 15 -120 8 0 15 6 15 14 0 18 114 116 200 171 86 56 194 110
308 155 l94 37 -79 28 c-192 69 -396 188 -486 284 -26 28 -52 51 -57 51 -6 0
-10 -50 -10 -120z"/>
<path d="M3375 4105 c-170 -7 -311 -13 -312 -14 -2 0 -3 -41 -3 -90 l0 -88 65
-6 c131 -12 194 -49 215 -125 14 -50 14 -1543 0 -1594 -6 -20 -26 -50 -45 -67
-38 -33 -77 -46 -172 -56 l-63 -7 0 -89 0 -89 669 0 c536 0 693 3 783 15 424
56 639 247 638 568 -1 294 -190 492 -555 582 l-90 22 75 22 c329 100 500 311
460 569 -37 241 -242 396 -585 442 -129 17 -715 20 -1080 5z m830 -205 c79
-30 144 -95 175 -175 20 -52 24 -78 24 -190 0 -158 -21 -225 -89 -291 -58 -57
-116 -75 -257 -81 l-118 -6 0 388 0 388 103 -6 c70 -3 121 -12 162 -27z m89
-970 c106 -40 170 -124 196 -257 16 -83 8 -311 -14 -380 -41 -129 -131 -201
-264 -211 -138 -9 -236 44 -261 142 -7 29 -11 166 -11 392 l0 347 148 -6 c118
-4 158 -9 206 -27z"/>
<path d="M1675 3265 c-111 -16 -245 -54 -319 -92 -61 -31 -142 -106 -167 -154
-10 -21 -21 -55 -25 -77 -20 -127 111 -223 262 -192 97 20 147 83 169 213 9
54 56 104 118 122 100 30 203 15 262 -36 43 -38 55 -80 55 -191 l0 -86 -42
-16 c-257 -93 -340 -126 -445 -176 -145 -70 -222 -120 -286 -189 -69 -74 -101
-148 -101 -236 -1 -89 16 -137 67 -193 81 -87 189 -119 365 -109 157 9 274 46
407 126 l62 38 42 -44 c82 -88 226 -130 401 -120 176 10 285 68 338 179 17 35
34 82 37 106 l7 42 -70 0 c-68 0 -70 -1 -82 -30 -26 -63 -97 -80 -141 -34
l-24 26 -5 426 c-7 475 -7 480 -76 561 -43 49 -151 105 -249 126 -101 23 -430
28 -560 10z m355 -875 l0 -190 -50 -39 c-125 -98 -250 -89 -301 23 -55 121 19
232 226 339 61 31 113 56 118 57 4 0 7 -85 7 -190z"/>
<path d="M1300 1798 c-83 -93 -267 -201 -473 -279 l-88 -33 94 -36 c177 -69
316 -149 440 -254 37 -31 67 -64 67 -72 0 -8 7 -14 15 -14 13 0 15 20 15 120
l0 120 750 0 750 0 0 130 0 130 -750 0 -750 0 0 120 c0 90 -3 120 -12 119 -7
-1 -33 -23 -58 -51z"/>
</g>
</svg>
