<?xml version="1.0" standalone="no"?>
<!DOCTYPE svg PUBLIC "-//W3C//DTD SVG 20010904//EN"
 "http://www.w3.org/TR/2001/REC-SVG-20010904/DTD/svg10.dtd">
<svg version="1.0" xmlns="http://www.w3.org/2000/svg"
 width="600.000000pt" height="600.000000pt" viewBox="0 0 600.000000 600.000000"
 preserveAspectRatio="xMidYMid meet">

<g transform="translate(0.000000,600.000000) scale(0.100000,-0.100000)"
fill="#000000" stroke="none">
<path d="M2697 4874 c-63 -20 -123 -79 -139 -139 l-12 -45 -274 0 c-310 0
-372 -9 -469 -66 -69 -41 -135 -110 -169 -176 -26 -51 -54 -147 -54 -185 l0
-23 1425 0 1425 0 0 23 c0 38 -28 134 -54 185 -34 66 -100 135 -169 176 -97
57 -159 66 -469 66 l-274 0 -12 45 c-16 62 -76 119 -143 139 -74 22 -541 22
-612 0z"/>
<path d="M1792 2758 l3 -1343 23 -58 c32 -78 77 -135 142 -179 104 -70 79 -68
1045 -68 966 0 941 -2 1045 68 65 44 110 101 142 179 l23 58 3 1343 3 1342
-1216 0 -1215 0 2 -1342z m562 988 c18 -7 43 -27 55 -44 l21 -30 0 -1060 c0
-1059 0 -1059 -21 -1086 -26 -33 -70 -56 -107 -56 -35 0 -92 37 -109 70 -10
20 -13 255 -13 1075 0 1035 0 1050 20 1083 20 32 67 61 103 62 10 0 33 -6 51
-14z m726 -14 c14 -10 33 -34 42 -53 17 -32 18 -103 18 -1055 0 -562 -3 -1036
-6 -1053 -9 -43 -56 -89 -100 -97 -48 -9 -104 14 -131 55 l-23 34 0 1046 c0
994 1 1048 18 1080 36 68 121 88 182 43z m687 11 c20 -9 44 -30 54 -47 18 -30
19 -71 19 -1079 0 -1157 4 -1087 -63 -1127 -64 -40 -143 -15 -177 54 -20 43
-20 51 -18 1084 3 1035 3 1041 24 1069 22 30 78 63 107 63 11 0 35 -8 54 -17z"/>
</g>
</svg>
