<?xml version="1.0" standalone="no"?>
<!DOCTYPE svg PUBLIC "-//W3C//DTD SVG 20010904//EN"
 "http://www.w3.org/TR/2001/REC-SVG-20010904/DTD/svg10.dtd">
<svg version="1.0" xmlns="http://www.w3.org/2000/svg"
 width="600.000000pt" height="600.000000pt" viewBox="0 0 600.000000 600.000000"
 preserveAspectRatio="xMidYMid meet">

<g transform="translate(0.000000,600.000000) scale(0.100000,-0.100000)"
fill="#000000" stroke="none">
<path d="M1134 5449 c-91 -26 -184 -128 -203 -222 -8 -36 -11 -523 -9 -1627
l3 -1575 27 -51 c31 -59 93 -118 152 -145 38 -17 75 -19 594 -19 l552 0 0 115
0 115 -542 2 -543 3 -3 1588 -2 1587 872 0 872 0 321 -320 321 -320 137 0 c75
0 137 3 137 8 -1 38 -96 145 -417 463 -329 328 -363 358 -418 380 l-60 24
-880 2 c-515 1 -893 -2 -911 -8z"/>
<path d="M2814 4239 c-91 -26 -184 -128 -203 -222 -8 -36 -11 -523 -9 -1627
l3 -1575 27 -51 c31 -59 93 -118 152 -145 39 -18 89 -19 1281 -19 1411 0 1279
-8 1374 89 88 91 82 -27 79 1396 l-3 1260 -32 65 c-28 57 -77 110 -395 426
-334 333 -368 363 -423 385 l-60 24 -880 2 c-515 1 -893 -2 -911 -8z m2113
-571 c263 -262 346 -351 354 -378 6 -23 9 -453 7 -1245 l-3 -1210 -1220 0
-1220 0 -3 1588 -2 1587 872 0 872 0 343 -342z"/>
<path d="M4368 3942 c-55 -33 -58 -54 -58 -364 0 -317 5 -354 63 -430 21 -27
56 -55 96 -75 l63 -33 309 0 c333 0 352 3 376 52 31 62 20 116 -32 156 -27 21
-35 22 -331 22 l-303 0 -3 311 -3 311 -37 34 c-43 39 -94 45 -140 16z"/>
</g>
</svg>
