<?xml version="1.0" standalone="no"?>
<!DOCTYPE svg PUBLIC "-//W3C//DTD SVG 20010904//EN"
 "http://www.w3.org/TR/2001/REC-SVG-20010904/DTD/svg10.dtd">
<svg version="1.0" xmlns="http://www.w3.org/2000/svg"
 width="600.000000pt" height="600.000000pt" viewBox="0 0 600.000000 600.000000"
 preserveAspectRatio="xMidYMid meet">

<g transform="translate(0.000000,600.000000) scale(0.100000,-0.100000)"
fill="#000000" stroke="none">
<path d="M3544 4231 c-2 -2 -4 -49 -4 -103 l0 -98 260 0 260 0 0 -1305 0
-1305 -260 0 -260 0 0 -100 0 -100 625 -2 625 -3 0 103 0 102 -260 0 -260 0 0
1305 0 1305 260 0 260 0 0 103 0 102 -621 0 c-341 0 -623 -2 -625 -4z"/>
<path d="M795 3644 c-59 -21 -110 -67 -139 -126 l-26 -52 0 -741 0 -741 26
-52 c14 -29 42 -65 62 -82 78 -64 -29 -60 1684 -60 l1559 0 -3 103 -3 102
-1545 2 -1545 3 -17 21 c-17 20 -18 68 -18 704 0 636 1 684 18 704 l17 21
1545 3 1545 2 3 103 3 102 -1563 -1 c-1330 0 -1569 -3 -1603 -15z"/>
<path d="M4380 3555 l0 -105 349 0 350 0 15 -22 c14 -20 16 -103 16 -703 0
-600 -2 -683 -16 -703 l-15 -22 -348 0 c-191 0 -350 -2 -352 -4 -2 -2 -3 -50
-1 -105 l3 -101 358 0 c393 0 413 3 483 60 20 17 48 53 62 82 l26 52 0 742 0
742 -28 53 c-31 60 -93 113 -150 129 -22 6 -179 10 -394 10 l-358 0 0 -105z"/>
</g>
</svg>
