<?xml version="1.0" standalone="no"?>
<!DOCTYPE svg PUBLIC "-//W3C//DTD SVG 20010904//EN"
 "http://www.w3.org/TR/2001/REC-SVG-20010904/DTD/svg10.dtd">
<svg version="1.0" xmlns="http://www.w3.org/2000/svg"
 width="600.000000pt" height="600.000000pt" viewBox="0 0 600.000000 600.000000"
 preserveAspectRatio="xMidYMid meet">

<g transform="translate(0.000000,600.000000) scale(0.100000,-0.100000)"
fill="#000000" stroke="none">
<path d="M4107 4343 c-3 -4 -219 -547 -481 -1206 -262 -659 -485 -1217 -497
-1240 -102 -202 -258 -350 -385 -365 l-44 -5 0 -123 0 -124 500 0 500 0 0 124
0 123 -82 5 c-148 8 -217 59 -226 164 -6 67 6 117 65 272 l46 122 468 0 c330
0 469 -3 469 -11 0 -6 33 -92 72 -192 80 -200 88 -245 52 -294 -29 -39 -101
-62 -196 -63 l-78 0 0 -125 0 -125 750 0 750 0 0 124 0 123 -56 6 c-124 13
-241 110 -324 268 -24 46 -267 638 -540 1314 l-497 1230 -131 3 c-72 1 -133
-1 -135 -5z m39 -1543 c96 -234 178 -431 181 -437 4 -10 -71 -13 -357 -13
l-362 0 6 23 c15 60 342 865 348 859 4 -4 87 -199 184 -432z"/>
<path d="M1890 4195 l0 -125 -785 0 -785 0 0 -140 0 -140 785 0 785 0 0 -125
c0 -118 1 -125 20 -125 11 0 20 6 20 14 0 8 26 38 58 66 115 103 291 206 480
280 l93 36 -88 33 c-214 81 -404 193 -501 295 -78 83 -82 79 -82 -69z"/>
<path d="M1160 3164 c-168 -16 -364 -61 -484 -111 -226 -94 -354 -266 -316
-425 26 -106 114 -169 248 -176 185 -10 280 64 318 250 8 40 23 89 33 108 72
141 416 160 513 29 40 -53 48 -93 48 -229 0 -113 -2 -129 -17 -135 -10 -3 -88
-31 -173 -62 -749 -266 -1011 -479 -988 -804 17 -230 212 -369 516 -369 225 0
447 65 630 183 l68 44 56 -57 c65 -66 162 -120 263 -146 98 -26 343 -26 435
-1 198 53 309 161 346 336 20 98 26 91 -80 91 l-93 0 -17 -44 c-21 -56 -45
-76 -95 -83 -46 -6 -80 11 -108 54 -17 25 -18 74 -23 588 -6 543 -6 562 -28
625 -57 169 -201 267 -468 316 -87 16 -476 28 -584 18z m360 -1198 l0 -254
-47 -41 c-26 -22 -71 -51 -100 -66 -53 -26 -142 -48 -165 -41 -7 3 -25 7 -40
10 -38 9 -95 61 -120 110 -27 51 -28 144 -4 200 25 59 79 120 154 173 65 47
285 163 310 163 9 0 12 -57 12 -254z"/>
</g>
</svg>
